<?xml version="1.0" encoding="iso-8859-1"?>
<!-- Generator: Adobe Illustrator 19.0.0, SVG Export Plug-In . SVG Version: 6.00 Build 0)  -->
<svg version="1.1" id="Capa_1" xmlns="http://www.w3.org/2000/svg" x="0px"
     y="0px"
     viewBox="0 0 512 512" style="enable-background:new 0 0 512 512;" xml:space="preserve">
<linearGradient id="SVGID_1_" gradientUnits="userSpaceOnUse" x1="256" y1="488.5923" x2="256" y2="27.4094"
                gradientTransform="matrix(1 0 0 -1 0 514.0009)">
	<stop offset="0" style="stop-color:#2AF598"/>
    <stop offset="1" style="stop-color:#009EFD"/>
</linearGradient>
    <path style="fill:url(#SVGID_1_);" d="M472,331.504c0,30.479-13.361,33.793-18.112,33.998c-3.169-1.899-12.353-12.4-22.982-42.685
	c-5.552-15.818-9.453-31.139-11.24-38.656c33.202-114.074,27.569-234.521,27.31-239.667l-0.96-18.99L325.28,25.508l1.79,21.648
	c0.048,0.588,1.099,13.967,1.734,35.503c-5.002-6.954-10.341-13.225-16.036-18.83c-26.206-25.787-59.818-38.324-102.757-38.326l0,0
	c-0.298-0.001-0.673-0.017-1.12-0.031c-1.594-0.05-3.174-0.062-4.744-0.046c-11.063-0.115-31.96,0.165-56.464,5.749
	c-34.782,7.926-64.244,23.586-87.569,46.545C20.225,116.983,0,175.901,0,252.838c0,82.99,20.836,145.461,61.93,185.678
	c21.737,21.273,59.655,46.099,119.07,47.953v0.036h0.939c2.037,0.055,4.095,0.086,6.182,0.086c1.684,0,3.387-0.018,5.104-0.055
	c0.739-0.016,1.335-0.031,1.775-0.031h0.543c1.187,0.061,2.26,0.085,3.202,0.085c1.327,0,2.392-0.046,3.178-0.098
	c40.06-0.138,75.511-9.228,105.37-27.045c18.513-11.046,35.24-25.677,49.987-43.688c6.029,11.616,12.925,22.43,20.243,31.598
	c20.362,25.509,44.278,39.041,69.181,39.147c0.233,0.005,0.514,0.009,0.838,0.009c5.954,0,26.675-1.236,43.515-17.345
	C504.954,455.875,512,436.811,512,412.504v-81H472z M40,252.838c0-65.82,16.207-115.146,48.172-146.609
	c6.624-6.52,13.894-12.257,21.781-17.222C90.062,127.362,80,182.202,80,252.838c0,76.679,11.417,135.384,34,175.325
	c-9.959-5.756-17.909-12.183-24.093-18.235C56.791,377.518,40,324.666,40,252.838z M257.923,412.313
	c-18.427,20.013-39.865,31.075-65.258,33.617c-6.169-1.236-15.938-4.724-26.277-14.454C145.226,411.562,120,364.405,120,252.838
	c0-106.088,23.642-151.268,43.474-170.488c14.333-13.89,28.987-16.521,38.063-16.903c0.405-0.002,0.806-0.011,1.213-0.011
	c1.373,0,2.755,0.011,4.146,0.033c1.248,0.02,2.289,0.035,3.105,0.035c74.841,0,104.571,106.13,114.092,153.442
	C316.406,291.173,298.287,368.473,257.923,412.313z M472,412.504c0,12.77-2.805,22.024-8.336,27.509
	c-5.96,5.909-14.302,6.447-15.854,6.495l-0.81-0.004c-30.043,0-55.915-46.15-65.976-77.17l-4.485-13.83h-26.933l-5.811,9.801
	c-9.518,16.054-20.087,29.622-31.871,40.797c28.988-48.56,47.207-118.427,54.286-208.464c4.388-55.813,3.28-105.146,2.029-132.134
	h39.185c0.197,38.431-2.398,128.845-27.571,212.219l-1.482,4.911l1.063,5.019c0.233,1.1,5.824,27.237,15.673,53.804
	c10.164,27.417,27.187,63.843,57.634,64.047c2.62,0.049,10.233-0.151,19.259-3.477L472,412.504L472,412.504z"/>
    <g>
</g>
    <g>
</g>
    <g>
</g>
    <g>
</g>
    <g>
</g>
    <g>
</g>
    <g>
</g>
    <g>
</g>
    <g>
</g>
    <g>
</g>
    <g>
</g>
    <g>
</g>
    <g>
</g>
    <g>
</g>
    <g>
</g>
</svg>
